<?xml version="1.0" encoding="UTF-8" standalone="no"?>
<!DOCTYPE svg PUBLIC "-//W3C//DTD SVG 20010904//EN"
              "http://www.w3.org/TR/2001/REC-SVG-20010904/DTD/svg10.dtd">

<svg xmlns="http://www.w3.org/2000/svg"
     width="0.853333in" height="0.853333in"
     viewBox="0 0 256 256">
  <path id="F-Droite"
        fill="#A7A9AC"
        d="M 134.71,144.77
           C 178.00,95.41 155.57,75.09 169.08,55.90
             182.19,44.79 182.59,50.49 187.53,53.10
             198.71,53.38 199.55,54.03 202.90,60.37
             208.29,60.85 212.77,62.04 214.36,65.40
             221.84,63.12 222.09,70.06 225.26,75.74
             234.70,73.66 240.54,80.12 242.31,86.36
             253.45,83.47 255.44,101.54 253.76,102.85
             249.29,121.85 207.41,117.47 200.66,128.28
             217.80,133.22 235.02,115.45 250.69,125.48
             257.04,134.74 255.63,137.87 252.93,146.72
             252.65,154.46 258.07,157.19 252.09,165.45
             251.76,177.58 237.21,195.35 237.28,193.12
             241.13,198.71 232.52,200.66 227.49,202.62
             229.94,210.81 218.74,212.40 206.53,218.27
             206.53,218.27 207.09,222.46 207.09,222.46
             192.42,239.65 191.91,172.53 134.99,147.00
             65.77,162.95 64.65,204.20 65.68,214.64
             65.68,214.64 61.48,214.36 61.48,214.36
             64.09,162.84 111.98,154.83 134.71,144.77 Z
           M 201.60,130.61M 252.27,209.79M 53.47,77.14
           C 51.63,76.02 40.45,45.12 44.53,43.78
             47.46,41.87 57.87,45.33 60.93,41.55
             65.45,39.23 79.68,44.92 84.06,43.70
             95.22,38.98 95.14,41.18 99.49,47.46
             108.74,46.24 107.83,49.70 112.35,49.41
             121.65,56.50 116.26,56.40 124.27,59.28
             141.77,73.17 76.93,97.87 85.89,124.83
             109.76,178.05 116.77,162.10 149.24,207.74
             149.24,207.74 145.89,209.98 145.89,209.98
             132.73,182.02 104.68,171.45 84.22,125.76
             55.81,108.13 8.18,155.91 0.19,122.97
             0.32,110.63 3.66,112.30 -0.19,99.49
             -0.10,97.26 4.23,100.01 3.73,89.43
             3.05,86.18 9.45,89.84 8.20,78.44
             7.32,77.03 15.14,76.32 12.48,70.99
             17.08,70.44 15.90,59.48 14.72,59.62
             15.01,61.12 25.67,56.28 25.53,54.59
             39.94,51.32 53.19,78.33 53.47,77.14 Z
           M 101.02,46.24M 100.00,45.63M 77.44,102.85M 132.01,167.18M 134.96,196.45M 2.85,124.49
           C 2.64,122.26 1.42,117.79 1.42,117.79M 6.50,89.94M 54.78,76.42" />
</svg>
